<svg xmlns="http://www.w3.org/2000/svg" viewBox="0 0 2712 2710"><defs><style>.cls-1{fill:#bfbfbf;}.cls-2{fill:#fff;}</style></defs><g id="Layer_4" data-name="Layer 4"><path class="cls-1" d="M2610.2,1355c0,692.66-561.52,1254.2-1254.2,1254.2S101.8,2047.66,101.8,1355,663.32,100.8,1356,100.8,2610.2,662.32,2610.2,1355"/><path class="cls-2" d="M1226.35,1184.46c-14,0-23.35,9.34-23.35,23.35v39.71c0,14,9.34,23.37,23.35,23.37s23.35-9.35,23.35-23.37v-39.71a23.39,23.39,0,0,0-23.35-23.35"/><path class="cls-2" d="M1324.46,1184.46c-14,0-23.35,9.34-23.35,23.35v39.71c0,14,9.34,23.37,23.35,23.37s23.35-9.35,23.35-23.37v-39.71a23.39,23.39,0,0,0-23.35-23.35"/><path class="cls-2" d="M1422.57,1184.46c-14,0-23.35,9.34-23.35,23.35v39.71c0,14,9.34,23.37,23.35,23.37s23.35-9.35,23.35-23.37v-39.71a23.39,23.39,0,0,0-23.35-23.35"/><path class="cls-2" d="M1226.35,1345.64c-14,0-23.35,9.34-23.35,23.35v39.71c0,14,9.34,23.37,23.35,23.37s23.35-9.35,23.35-23.37V1369c0-11.67-11.66-23.35-23.35-23.35"/><path class="cls-2" d="M1324.46,1345.64c-14,0-23.35,9.34-23.35,23.35v39.71c0,14,9.34,23.37,23.35,23.37s23.35-9.35,23.35-23.37V1369c0-11.67-11.66-23.35-23.35-23.35"/><path class="cls-2" d="M1422.57,1345.64c-14,0-23.35,9.34-23.35,23.35v39.71c0,14,9.34,23.37,23.35,23.37s23.35-9.35,23.35-23.37V1369c0-11.67-11.66-23.35-23.35-23.35"/><path class="cls-2" d="M1226.35,1509.15c-14,0-23.35,9.34-23.35,23.37v39.7c0,14,9.34,23.37,23.35,23.37s23.35-9.34,23.35-23.37v-39.7a23.39,23.39,0,0,0-23.35-23.37"/><path class="cls-2" d="M1324.46,1509.15c-14,0-23.35,9.34-23.35,23.37v39.7c0,14,9.34,23.37,23.35,23.37s23.35-9.34,23.35-23.37v-39.7a23.39,23.39,0,0,0-23.35-23.37"/><path class="cls-2" d="M1422.57,1509.15c-14,0-23.35,9.34-23.35,23.37v39.7c0,14,9.34,23.37,23.35,23.37s23.35-9.34,23.35-23.37v-39.7a23.39,23.39,0,0,0-23.35-23.37"/><path class="cls-2" d="M1226.35,1670.33c-14,0-23.35,9.34-23.35,23.35v39.72c0,14,9.34,23.37,23.35,23.37s23.35-9.36,23.35-23.37v-39.72c0-11.66-11.66-23.35-23.35-23.35"/><path class="cls-2" d="M1324.46,1670.33c-14,0-23.35,9.34-23.35,23.35v39.72c0,14,9.34,23.37,23.35,23.37s23.35-9.36,23.35-23.37v-39.72c0-11.66-11.66-23.35-23.35-23.35"/><path class="cls-2" d="M1422.57,1670.33c-14,0-23.35,9.34-23.35,23.35v39.72c0,14,9.34,23.37,23.35,23.37s23.35-9.36,23.35-23.37v-39.72c0-11.66-11.66-23.35-23.35-23.35"/><path class="cls-2" d="M1226.35,1833.85c-14,0-23.35,9.35-23.35,23.35v39.71c0,14,9.34,23.37,23.35,23.37s23.35-9.36,23.35-23.37V1857.2a23.4,23.4,0,0,0-23.35-23.35"/><path class="cls-2" d="M1324.46,1833.85c-14,0-23.35,9.35-23.35,23.35v39.71c0,14,9.34,23.37,23.35,23.37s23.35-9.36,23.35-23.37V1857.2a23.4,23.4,0,0,0-23.35-23.35"/><path class="cls-2" d="M1422.57,1833.85c-14,0-23.35,9.35-23.35,23.35v39.71c0,14,9.34,23.37,23.35,23.37s23.35-9.36,23.35-23.37V1857.2a23.4,23.4,0,0,0-23.35-23.35"/><path class="cls-2" d="M1660.83,773.34c14,0,23.35-9.34,23.35-23.37v-42c0-14-9.33-23.35-23.35-23.35s-23.35,9.33-23.35,23.35v42c0,14,9.34,23.37,23.35,23.37"/><path class="cls-2" d="M1758.94,773.34c14,0,23.35-9.34,23.35-23.37v-42c0-14-9.33-23.35-23.35-23.35s-23.35,9.33-23.35,23.35v42c0,14,9.34,23.37,23.35,23.37"/><path class="cls-2" d="M1660.83,943.86c14,0,23.35-9.34,23.35-23.35V878.45c0-14-9.33-23.35-23.35-23.35s-23.35,9.33-23.35,23.35v42.06c0,14,9.34,23.35,23.35,23.35"/><path class="cls-2" d="M1558.06,773.34c14,0,23.35-9.34,23.35-23.37v-42c0-14-9.34-23.35-23.35-23.35s-23.35,9.33-23.35,23.35v42c0,14,9.33,23.37,23.35,23.37"/><path class="cls-2" d="M1581.41,920.5v-42c0-14-9.33-23.37-23.35-23.37s-23.37,9.35-23.37,23.37v42c0,14,9.36,23.35,23.37,23.35s23.35-9.34,23.35-23.35"/><path class="cls-2" d="M1758.94,943.86c14,0,23.35-9.34,23.35-23.35V878.45c0-14-9.33-23.35-23.35-23.35s-23.35,9.33-23.35,23.35v42.06c0,14,9.34,23.35,23.35,23.35"/><path class="cls-2" d="M1660.83,1114.38c14,0,23.35-9.34,23.35-23.35v-42c0-14-9.33-23.37-23.35-23.37s-23.35,9.33-23.35,23.37v42c0,14,9.34,23.35,23.35,23.35"/><path class="cls-2" d="M1758.94,1114.38c14,0,23.35-9.34,23.35-23.35v-42c0-14-9.33-23.37-23.35-23.37s-23.35,9.33-23.35,23.37v42c0,14,9.34,23.35,23.35,23.35"/><path class="cls-2" d="M1660.83,1284.9c14,0,23.35-9.33,23.35-23.35v-42c0-14-9.33-23.37-23.35-23.37s-23.35,9.34-23.35,23.37v42c0,14,9.34,23.35,23.35,23.35"/><path class="cls-2" d="M1758.94,1284.9c14,0,23.35-9.33,23.35-23.35v-42c0-14-9.33-23.37-23.35-23.37s-23.35,9.34-23.35,23.37v42c0,14,9.34,23.35,23.35,23.35"/><path class="cls-2" d="M1660.83,1455.43c14,0,23.35-9.34,23.35-23.35V1390c0-14-9.33-23.35-23.35-23.35s-23.35,9.33-23.35,23.35v42.06c0,14,9.34,23.35,23.35,23.35"/><path class="cls-2" d="M1758.94,1455.43c14,0,23.35-9.34,23.35-23.35V1390c0-14-9.33-23.35-23.35-23.35s-23.35,9.33-23.35,23.35v42.06c0,14,9.34,23.35,23.35,23.35"/><path class="cls-2" d="M733.48,1960h357.39v98.11H733.48Zm357.39-467.18H733.48v-81.75h357.39ZM843.26,710.27h362.07V901.81l-81.75-42c-7-4.68-16.37-2.33-23.37,0-7,4.67-11.67,11.68-11.67,21v483.54H843.26Zm621.37-93.44h387.75v911h-280.3V1105.05c0-9.36-4.68-16.36-11.68-21l-95.77-49Zm-327,770.87V918.17L1525.36,1119v939.05H1137.59ZM733.48,1817.49h357.39v95.77H733.48Zm357.39-189.21H733.48v-88.76h357.39ZM733.48,1675h357.39v95.77H733.48Zm1118.9,383.09H1681.86V1871.22c0-49,37.37-88.77,86.44-88.77s86.41,39.72,86.41,88.77v186.87Zm116.79,0h-67.74V1871.22c0-74.75-58.39-135.49-133.13-135.49-72.42,0-133.16,60.74-133.16,135.49v186.87h-63.06V1574.55h397.09Zm98.12,0h-51.4V1551.2c0-14-9.34-23.37-23.35-23.37H1899.1V593.48c0-14-9.34-23.37-23.35-23.37H1441.26c-14,0-23.35,9.34-23.35,23.37v418.13l-165.86-86.43V686.92c0-14-9.34-23.37-23.35-23.37H819.91c-14,0-23.37,9.34-23.37,23.37v677.41H710.13c-14,0-23.37,9.33-23.37,23.37v670.39h-42c-14,0-23.37,9.36-23.37,23.35s9.36,23.37,23.37,23.37H2067.29c14,0,23.35-9.33,23.35-23.37a23.41,23.41,0,0,0-23.35-23.35"/></g></svg>