<?xml version="1.0" encoding="utf-8"?>
<!-- Generator: Adobe Illustrator 26.0.1, SVG Export Plug-In . SVG Version: 6.00 Build 0)  -->
<svg version="1.1" id="App_Icon_Kit_A" xmlns="http://www.w3.org/2000/svg" xmlns:xlink="http://www.w3.org/1999/xlink" x="0px"
	 y="0px" viewBox="0 0 1024 1024" style="enable-background:new 0 0 1024 1024;" xml:space="preserve">
<style type="text/css">
	.st0{display:none;}
	.st1{display:inline;fill:#C66A6A;}
	.st2{fill:#A3ACB8;}
	.st3{fill:#FFFFFF;}
	.st4{fill:none;stroke:#A3ACB8;stroke-width:6;stroke-miterlimit:10;}
	.st5{fill:#FFFFFF;stroke:#A3ACB8;stroke-width:16;stroke-miterlimit:10;}
	.st6{fill:#FDFEFF;}
	.st7{fill:none;stroke:#A3ACB8;stroke-width:10;stroke-miterlimit:10;}
</style>
<g id="Notifications_and_Activity_-_Preview">
</g>
<g id="Settings_Icon_-_Preview_Sizes">
</g>
<g id="Spotlight_Icon_-_Preview_Sizes">
</g>
<g id="App_Icon_-_Preview_Sizes">
</g>
<g id="App_Icon_and_Badge_-_Main">
	<g>
		<path class="st2" d="M513.62,520.21c-113.38,0-226.76,0-340.14,0.01l340.14,0.28C513.62,520.4,513.62,520.3,513.62,520.21z"/>
		<path class="st2" d="M876.48,495.87c-4.44-0.2-5.49-2.05-5.46-6c0.12-14.2,0.04-28.4,0.03-42.61
			c-0.02-18.99-8.45-27.48-27.36-27.48c-157.68-0.01-315.36-0.05-473.04,0.14c-6.73,0.01-10.97-1.58-14.2-7.77
			c-3.97-7.63-9.44-14.46-13.55-22.03c-3.96-7.3-10.7-9.82-17.73-12.28c-54.17,0-108.35,0-162.52,0
			c-13.5,3.66-16.14,13.29-15.87,25.97c0.61,28.74,0.11,57.51,0.26,86.26c0.03,5.01-0.89,7.11-6.69,8.6
			c-11.76,3.02-18.68,12.04-22.06,23.66l-0.12,0.35c0,0,0,0-0.04,0.12c-0.03,0.09-0.09,0.41-0.12,0.57
			c-0.29,2.11-1.21,9.53-0.69,15.36c0.61,6.87,1.22,12.07,1.35,13.4c0.13,1.33,0.43,3.56,0.43,3.56l-0.02-0.04
			c0.48,3.49,0.94,6.98,1.3,10.47c2.76,26.43,5.32,52.88,7.88,79.34c2.08,21.51,3.96,43.04,6.07,64.55
			c2.49,25.31,5.19,50.59,7.7,75.9c2.11,21.31,4.02,42.65,6.12,63.96c1.03,10.46,1.61,21.03,3.61,31.31
			c3.53,18.19,17.85,29.44,36.58,29.45c215.68,0.04,431.36,0.04,647.04,0c22.67,0,36.38-15.16,38.13-39.56
			c1.88-26.31,5.11-52.52,7.66-78.78c2.07-21.32,3.97-42.65,6.05-63.97c2.1-21.5,4.38-42.99,6.51-64.49
			c1.72-17.32,3.29-34.65,4.99-51.97c2.16-21.88,4.4-43.75,6.58-65.63c0.59-5.9,1.37-11.81,1.52-17.72
			C907.3,509.75,895.24,496.72,876.48,495.87z M884.52,536.83c-1.3,19.46-3.18,38.88-4.98,58.3c-1.64,17.71-3.5,35.39-5.27,53.09
			c-2.19,21.88-4.4,43.76-6.56,65.64c-2.07,20.93-4.06,41.88-6.12,62.81c-2.19,22.26-4.43,44.52-6.65,66.78
			c-0.84,8.37-1.5,16.77-2.59,25.11c-1.09,8.32-5.24,12.13-13.58,12.93c-2.86,0.27-5.76,0.13-8.64,0.13c-210.31,0-420.62,0-630.93,0
			c-22.24,0-23.68-1.77-25.55-23.78c-2.64-31.24-6-62.43-8.96-93.65c-2.44-25.7-4.68-51.42-7.16-77.12
			c-2.89-29.88-5.97-59.74-8.91-89.62c-2.04-20.74-4.18-41.48-5.9-62.26c-0.8-9.65,5.22-14.98,15.96-14.98c3.97,0,7.93,0,11.9,0l0,0
			l2.9,0c113.38-0.01,226.76-0.01,340.14-0.01c0,0.1,0,0.19,0,0.29l321.41,0.26l0,0c0.42,0,0.84,0,1.26,0
			c11.14,0,22.27,0.34,33.41,0.63C878.67,521.62,885.12,527.79,884.52,536.83z"/>
		<path class="st3" d="M664.04,501.49c-1.29,0-2.59-0.45-3.64-1.38c-2.28-2.01-2.49-5.49-0.48-7.76
			c9.28-10.51,14.51-17.11,22.01-26.72c1.87-2.39,5.32-2.82,7.72-0.95c2.4,1.87,2.82,5.32,0.95,7.72
			c-7.41,9.49-12.97,16.51-22.43,27.23C667.08,500.86,665.56,501.49,664.04,501.49z"/>
		<path class="st3" d="M712.25,439.79c-1.03,0-2.08-0.29-3-0.9c-2.54-1.66-3.26-5.07-1.59-7.61c5.58-8.54,10.75-17.77,16.75-29.93
			c1.34-2.72,4.64-3.84,7.37-2.5c2.72,1.34,3.84,4.64,2.5,7.37c-6.21,12.58-11.58,22.17-17.41,31.08
			C715.8,438.91,714.04,439.79,712.25,439.79z"/>
		<path class="st2" d="M746.63,370c-0.68,0-1.38-0.13-2.05-0.4c-2.82-1.13-4.18-4.34-3.05-7.16c4.36-10.84,7.09-20.85,8.85-32.43
			c0.46-3,3.26-5.07,6.26-4.61c3,0.46,5.07,3.26,4.61,6.26c-1.89,12.46-4.83,23.22-9.52,34.89C750.87,368.7,748.81,370,746.63,370z"
			/>
		<path class="st2" d="M530.5,331.24c-8.52,0-17.23-1.46-25.19-4.21c-2.87-0.99-4.39-4.12-3.4-7c0.99-2.87,4.13-4.4,7-3.4
			c10.05,3.47,21.47,4.48,31.84,2.78c3-0.5,5.82,1.54,6.31,4.54s-1.54,5.83-4.54,6.31C538.6,330.91,534.55,331.24,530.5,331.24z"/>
		<path class="st2" d="M572.45,315.05c-1.38,0-2.77-0.52-3.84-1.56c-2.18-2.12-2.22-5.6-0.1-7.78c2.83-2.9,5.22-6.21,7.1-9.84
			c2.83-5.46,4.59-11.6,5.23-18.24c0.29-3.02,2.96-5.25,6-4.95c3.02,0.29,5.24,2.98,4.95,6c-0.77,8.06-2.93,15.54-6.41,22.26
			c-2.38,4.59-5.4,8.78-8.99,12.45C575.31,314.5,573.88,315.05,572.45,315.05z"/>
		<path class="st2" d="M479.04,307.35c-1.7,0-3.38-0.79-4.46-2.27c-2.96-4.08-5.31-8.54-6.98-13.25
			c-2.29-6.47-3.46-13.41-3.46-20.62c0-0.88,0.02-1.75,0.05-2.63c0.12-3.04,2.64-5.42,5.71-5.28c3.04,0.12,5.4,2.67,5.28,5.71
			c-0.03,0.74-0.04,1.47-0.04,2.2c0,5.96,0.95,11.65,2.82,16.94c1.32,3.71,3.17,7.23,5.51,10.46c1.78,2.46,1.24,5.9-1.22,7.68
			C481.29,307.01,480.16,307.35,479.04,307.35z"/>
		<path class="st2" d="M758.91,301.51c-0.08,0-0.17,0-0.26-0.01c-3.03-0.14-5.38-2.71-5.24-5.75c0.08-1.71,0.12-3.45,0.12-5.17
			c0-9.03-1.08-18.5-3.2-28.15c-0.65-2.97,1.22-5.9,4.19-6.56c2.96-0.66,5.9,1.22,6.56,4.19c2.3,10.42,3.46,20.69,3.46,30.52
			c0,1.89-0.04,3.8-0.13,5.67C764.27,299.21,761.84,301.51,758.91,301.51z"/>
		<path class="st2" d="M581.05,249.37c-2.2,0-4.27-1.33-5.12-3.49c-3.78-9.64-9.42-19.33-16.77-28.79c-1.86-2.4-1.42-5.86,0.98-7.72
			c2.4-1.86,5.85-1.42,7.72,0.97c7.99,10.3,14.15,20.9,18.31,31.52c1.11,2.83-0.28,6.02-3.11,7.13
			C582.4,249.25,581.72,249.37,581.05,249.37z"/>
		<path class="st2" d="M479.79,241.17c-0.96,0-1.94-0.25-2.82-0.78c-2.61-1.56-3.45-4.94-1.89-7.54
			c5.69-9.5,13.69-18.44,24.45-27.35c2.34-1.94,5.81-1.61,7.74,0.73c1.94,2.34,1.61,5.81-0.73,7.74
			c-9.79,8.1-16.99,16.12-22.03,24.53C483.48,240.21,481.66,241.17,479.79,241.17z"/>
		<path class="st2" d="M744.78,233.55c-2.13,0-4.15-1.24-5.05-3.32c-1.01-2.33-2.09-4.73-3.23-7.12
			c-3.26-6.88-8.17-13.75-14.61-20.42c-2.11-2.19-2.05-5.67,0.14-7.78c2.19-2.11,5.67-2.05,7.78,0.14
			c7.27,7.53,12.86,15.39,16.63,23.35c1.19,2.5,2.32,5.01,3.38,7.46c1.21,2.79-0.08,6.03-2.87,7.23
			C746.25,233.41,745.51,233.55,744.78,233.55z"/>
		<path class="st2" d="M531.65,195.09c-1.83,0-3.61-0.91-4.66-2.57c-1.26-2-1.07-4.51,0.29-6.28c-6.34-4.65-12.91-8.76-19.61-12.27
			c-2.69-1.41-3.73-4.73-2.32-7.42c1.41-2.69,4.73-3.73,7.42-2.32c8.36,4.37,16.5,9.61,24.3,15.62c8.27-4.87,16.01-8.89,23.1-12.01
			c2.78-1.22,6.03,0.04,7.25,2.83c1.22,2.78-0.04,6.03-2.83,7.25c-6.12,2.69-12.78,6.11-19.9,10.22c0.12,1.4-0.29,2.85-1.26,4.01
			c-1.81,2.16-4.92,2.58-7.22,1.08c-0.54,0.34-1.09,0.68-1.63,1.02C533.66,194.82,532.65,195.09,531.65,195.09z"/>
		<path class="st2" d="M698.39,182.9c-0.83,0-1.66-0.19-2.45-0.58c-8.01-4-19.63-8.12-31.87-11.3c-2.94-0.76-4.7-3.77-3.94-6.71
			s3.77-4.7,6.71-3.94c13.15,3.42,25.23,7.71,34.02,12.1c2.72,1.36,3.82,4.66,2.46,7.38C702.35,181.78,700.41,182.9,698.39,182.9z"
			/>
		<path class="st2" d="M304.89,174.11c-2.19,0-4.26-1.32-5.12-3.48c-1.12-2.83,0.27-6.02,3.09-7.14
			c10.17-4.02,21.72-7.48,34.34-10.27c2.97-0.66,5.9,1.22,6.56,4.18c0.66,2.97-1.22,5.9-4.18,6.56
			c-12.05,2.67-23.04,5.95-32.67,9.76C306.24,173.99,305.56,174.11,304.89,174.11z"/>
		<path class="st2" d="M596.04,169.27c-2.67,0-5.01-1.95-5.43-4.67c-0.46-3,1.6-5.81,4.6-6.27c13.23-2.02,25.23-3.05,35.68-3.06
			c0,0,0,0,0,0c3.04,0,5.5,2.46,5.5,5.5c0,3.04-2.46,5.5-5.5,5.5c-9.89,0-21.33,0.99-34.02,2.93
			C596.6,169.25,596.32,169.27,596.04,169.27z"/>
		<path class="st2" d="M477.42,162.7c-0.4,0-0.8-0.04-1.21-0.13c-10.32-2.31-21.71-4.01-33.86-5.06c-3.03-0.26-5.27-2.92-5.01-5.95
			c0.26-3.03,2.93-5.27,5.95-5.01c12.64,1.09,24.52,2.87,35.32,5.28c2.96,0.66,4.83,3.6,4.17,6.57
			C482.21,160.96,479.94,162.7,477.42,162.7z"/>
		<path class="st2" d="M372.91,158.48c-2.77,0-5.15-2.08-5.46-4.9c-0.33-3.02,1.85-5.73,4.87-6.07c11.66-1.27,23.58-2.01,35.45-2.18
			c0.03,0,0.05,0,0.08,0c3,0,5.45,2.41,5.5,5.42c0.04,3.04-2.38,5.54-5.42,5.58c-11.52,0.17-23.1,0.88-34.41,2.12
			C373.32,158.47,373.11,158.48,372.91,158.48z"/>
		<circle class="st2" cx="232.04" cy="210.21" r="12.84"/>
		<path class="st4" d="M233.86,197.39c-0.17-0.31,0.53-1.86,0.63-2.18c3.39-11.23,9.76-21.59,18.77-29.17
			c2.5-2.1,5.17-3.73,7.92-5.51c1.91-1.25,3.91-2.42,6.11-3.03c2.2-0.61,4.65-0.61,6.68,0.43c5.26,2.7,3.68,9.38,1.65,13.61
			c-5.65,11.76-14.76,22.53-26.18,29.01c-4.89,2.78-6.51,3.64-6.51,3.64c14.9-7.95,30.55-17.32,48.14-12.94
			c2.45,0.61,5.04,1.63,6.27,3.83c1.12,2.02,0.78,4.61-0.36,6.61c-1.14,2.01-2.96,3.54-4.82,4.89
			c-13.35,9.71-31.34,12.86-47.22,8.38c-1.69-0.48-1.69-0.48-1.69-0.48S233.86,197.4,233.86,197.39z"/>
	</g>
</g>
</svg>
