<svg width="180" height="180" viewBox="0 0 180 180" fill="none" xmlns="http://www.w3.org/2000/svg">
<circle cx="90" cy="90" r="88.5" stroke="#657285" stroke-width="3" stroke-dasharray="4 4"/>
<path d="M83.2886 65.4955C78.2437 65.0473 73.9767 69.6426 72.4738 71.9962L80.4597 101.173C82.4845 99.5226 87.5869 95.9644 91.7989 94.9382C97.0638 93.6554 104.145 96.5821 114.406 95.0649C122.615 93.8512 125.566 89.5285 126.016 87.5188C125.315 87.5149 123.336 87.2414 121.029 86.1786C118.721 85.1158 114.831 81.8571 113.175 80.3605C113.796 78.8768 115.308 74.861 116.384 70.6677C117.727 65.4262 116.72 57.5469 116.445 59.645C116.171 61.7431 113.269 63.564 106.418 66.4126C99.5666 69.2611 89.5948 66.0558 83.2886 65.4955Z" stroke="#657285" stroke-width="2.47515"/>
<rect x="64.9506" y="64.3117" width="5.23454" height="79.7597" rx="2.61727" transform="rotate(-14.27 64.9506 64.3117)" stroke="#657285" stroke-width="2.47515"/>
</svg>
