<svg width="190" height="190" viewBox="0 0 190 190" fill="none" xmlns="http://www.w3.org/2000/svg">
<circle cx="95" cy="95" r="95" fill="#F3F7F9"/>
<rect x="50.5068" y="53.5474" width="79.5362" height="61.3291" rx="4.50949" transform="rotate(-5.3658 50.5068 53.5474)" fill="url(#paint0_linear)"/>
<path opacity="0.2" d="M105.255 77.5422C101.57 81.2965 89.9905 93.2158 85.2049 99.5672L85.4855 110.955L130.915 107.445C134.605 107.16 136.283 102.902 133.623 100.328C124.623 91.6184 111.692 80.7713 107.654 77.4161C106.938 76.8211 105.907 76.8778 105.255 77.5422Z" fill="url(#paint1_linear)"/>
<path d="M78.9931 68.0827C77.0379 68.2664 61.8628 88.7074 54.7651 98.8932L55.8161 110.083C56.0503 112.576 58.2709 114.401 60.7622 114.147L114.368 108.695C103.391 95.0809 80.9484 67.8991 78.9931 68.0827Z" fill="url(#paint2_linear)"/>
<ellipse cx="109.45" cy="61.5984" rx="6.8735" ry="6.31329" transform="rotate(-5.3658 109.45 61.5984)" fill="#1486EE"/>
<path d="M50.0996 143.374C52.2446 143.374 53.5976 142.186 53.5976 139.766V135.245H51.9146V139.843C51.9146 141.163 51.2326 141.823 50.1216 141.823C49.0106 141.823 48.3396 141.13 48.3396 139.777V135.245H46.6456V139.832C46.6456 142.164 47.9656 143.374 50.0996 143.374ZM56.061 143.253H57.744V140.811H59.141C60.923 140.811 62.364 139.865 62.364 138.017V137.995C62.364 136.378 61.209 135.245 59.306 135.245H56.061V143.253ZM57.744 139.304V136.774H59.163C60.087 136.774 60.659 137.203 60.659 138.028V138.05C60.659 138.765 60.12 139.304 59.196 139.304H57.744ZM64.3454 143.253H70.0654V141.713H66.0284V135.245H64.3454V143.253ZM75.4705 143.385C77.9345 143.385 79.7275 141.504 79.7275 139.249V139.227C79.7275 136.95 77.9565 135.113 75.4925 135.113C73.0285 135.113 71.2355 136.994 71.2355 139.249V139.271C71.2355 141.548 73.0065 143.385 75.4705 143.385ZM75.4925 141.834C74.0295 141.834 73.0065 140.657 73.0065 139.249V139.227C73.0065 137.819 74.0185 136.664 75.4705 136.664C76.9115 136.664 77.9565 137.841 77.9565 139.249V139.271C77.9565 140.679 76.9445 141.834 75.4925 141.834ZM80.7582 143.253H82.4852L83.2332 141.427H86.6982L87.4462 143.253H89.2172L85.7742 135.19H84.2122L80.7582 143.253ZM83.8382 139.931L84.9712 137.214L86.0932 139.931H83.8382ZM91.1321 143.253H94.2231C96.7311 143.253 98.4801 141.504 98.4801 139.249V139.227C98.4801 136.972 96.7311 135.245 94.2231 135.245H91.1321V143.253ZM94.2231 136.774C95.7081 136.774 96.7091 137.797 96.7091 139.249V139.271C96.7091 140.723 95.7081 141.724 94.2231 141.724H92.8151V136.774H94.2231ZM104.768 143.253H106.451V140.811H107.848C109.63 140.811 111.071 139.865 111.071 138.017V137.995C111.071 136.378 109.916 135.245 108.013 135.245H104.768V143.253ZM106.451 139.304V136.774H107.87C108.794 136.774 109.366 137.203 109.366 138.028V138.05C109.366 138.765 108.827 139.304 107.903 139.304H106.451ZM113.053 143.253H114.736V140.008H118.102V143.253H119.796V135.245H118.102V138.446H114.736V135.245H113.053V143.253ZM126.251 143.385C128.715 143.385 130.508 141.504 130.508 139.249V139.227C130.508 136.95 128.737 135.113 126.273 135.113C123.809 135.113 122.016 136.994 122.016 139.249V139.271C122.016 141.548 123.787 143.385 126.251 143.385ZM126.273 141.834C124.81 141.834 123.787 140.657 123.787 139.249V139.227C123.787 137.819 124.799 136.664 126.251 136.664C127.692 136.664 128.737 137.841 128.737 139.249V139.271C128.737 140.679 127.725 141.834 126.273 141.834ZM134.263 143.253H135.957V136.807H138.41V135.245H131.799V136.807H134.263V143.253ZM143.937 143.385C146.401 143.385 148.194 141.504 148.194 139.249V139.227C148.194 136.95 146.423 135.113 143.959 135.113C141.495 135.113 139.702 136.994 139.702 139.249V139.271C139.702 141.548 141.473 143.385 143.937 143.385ZM143.959 141.834C142.496 141.834 141.473 140.657 141.473 139.249V139.227C141.473 137.819 142.485 136.664 143.937 136.664C145.378 136.664 146.423 137.841 146.423 139.249V139.271C146.423 140.679 145.411 141.834 143.959 141.834Z" fill="#5CA1E0"/>
<defs>
<linearGradient id="paint0_linear" x1="90.7659" y1="62.5664" x2="90.3517" y2="114.877" gradientUnits="userSpaceOnUse">
<stop stop-color="#D3EAFF"/>
<stop offset="1" stop-color="#F3F7F9" stop-opacity="0"/>
</linearGradient>
<linearGradient id="paint1_linear" x1="115.931" y1="86.4901" x2="102.528" y2="98.7008" gradientUnits="userSpaceOnUse">
<stop stop-color="#0580F0"/>
<stop offset="1" stop-color="#5CA1E0"/>
</linearGradient>
<linearGradient id="paint2_linear" x1="93.5716" y1="81.5414" x2="75.8334" y2="96.5822" gradientUnits="userSpaceOnUse">
<stop stop-color="#0580F0"/>
<stop offset="1" stop-color="#5CA1E0"/>
</linearGradient>
</defs>
</svg>
